<?xml version="1.0" encoding="utf-8"?>
<!-- Generator: Adobe Illustrator 15.0.0, SVG Export Plug-In . SVG Version: 6.00 Build 0)  -->
<!DOCTYPE svg PUBLIC "-//W3C//DTD SVG 1.1//EN" "http://www.w3.org/Graphics/SVG/1.1/DTD/svg11.dtd">
<svg version="1.1" id="Layer_1" xmlns="http://www.w3.org/2000/svg" xmlns:xlink="http://www.w3.org/1999/xlink" x="0px" y="0px"
	 width="365" height="274" viewBox="0 0 665.691 500" enable-background="new 0 0 665.691 500" xml:space="preserve">
<path d="M605.544,452.083h-2.252v4.021h2.252c1.298,0,2.18-0.882,2.18-2.014C607.725,452.969,606.842,452.083,605.544,452.083
	 M607.725,463.324l-2.728-5.281h-1.705v5.281h-2.446v-13.316h5.007c2.52,0,4.291,1.864,4.291,4.083c0,1.877-1.159,3.097-2.619,3.612
	l2.957,5.621H607.725z M605.136,446.631c-5.52,0-9.886,4.43-9.886,10.051c0,5.62,4.366,10.05,9.886,10.05
	c5.521,0,9.845-4.43,9.845-10.05C614.981,451.061,610.657,446.631,605.136,446.631 M605.136,469.014
	c-6.818,0-12.333-5.52-12.333-12.332c0-6.814,5.515-12.337,12.333-12.337c6.812,0,12.334,5.522,12.334,12.337
	C617.47,463.494,611.948,469.014,605.136,469.014"/>
<path d="M76.565,456.904l-8.587,24.449h16.943L76.565,456.904z M91.035,499.536l-3.794-11.064h-21.74l-3.789,11.064h-8.898
	l20.192-55.087h6.73l20.195,55.087H91.035z"/>
<path d="M130.094,500c-8.275,0-14.235-1.933-19.494-7.275l5.572-5.49c4.019,4.023,8.432,5.261,14.078,5.261
	c7.195,0,11.375-3.094,11.375-8.434c0-2.4-0.697-4.411-2.168-5.726c-1.391-1.313-2.784-1.857-6.036-2.32l-6.498-0.928
	c-4.486-0.623-8.045-2.168-10.446-4.413c-2.706-2.552-4.021-6.031-4.021-10.523c0-9.593,6.962-16.168,18.416-16.168
	c7.271,0,12.38,1.855,17.099,6.267l-5.339,5.261c-3.406-3.247-7.351-4.253-11.991-4.253c-6.503,0-10.06,3.713-10.06,8.588
	c0,2.009,0.618,3.788,2.087,5.106c1.396,1.237,3.637,2.168,6.192,2.55l6.266,0.93c5.107,0.777,7.967,2.014,10.289,4.101
	c3.019,2.634,4.486,6.578,4.486,11.3C149.9,493.964,141.625,500,130.094,500"/>
<path d="M186.646,500c-5.725,0-10.681-2.089-14.47-5.88c-5.418-5.415-5.337-11.527-5.337-22.131c0-10.6-0.081-16.708,5.337-22.125
	c3.789-3.79,8.745-5.88,14.47-5.88c10.135,0,17.719,5.958,19.65,16.945h-8.51c-1.315-5.57-5.031-9.441-11.141-9.441
	c-3.249,0-6.189,1.239-8.125,3.33c-2.707,2.939-3.325,6.111-3.325,17.172c0,11.068,0.619,14.241,3.325,17.177
	c1.937,2.092,4.876,3.33,8.125,3.33c6.11,0,9.903-3.871,11.219-9.439h8.432C204.438,494.042,196.625,500,186.646,500"/>
<polygon points="225.164,499.536 225.164,444.448 260.369,444.448 260.369,451.953 233.522,451.953 233.522,468.047 
	256.423,468.047 256.423,475.473 233.522,475.473 233.522,492.031 260.369,492.031 260.369,499.536 "/>
<polygon points="313.357,499.536 287.904,460.771 287.904,499.536 279.547,499.536 279.547,444.448 287.208,444.448 
	312.663,483.132 312.663,444.448 321.019,444.448 321.019,499.536 "/>
<path d="M357.758,500c-8.28,0-14.235-1.933-19.5-7.275l5.572-5.49c4.023,4.023,8.434,5.261,14.082,5.261
	c7.197,0,11.372-3.094,11.372-8.434c0-2.4-0.696-4.411-2.163-5.726c-1.396-1.313-2.79-1.857-6.039-2.32l-6.501-0.928
	c-4.48-0.623-8.042-2.168-10.44-4.413c-2.708-2.552-4.026-6.031-4.026-10.523c0-9.593,6.965-16.168,18.417-16.168
	c7.271,0,12.38,1.855,17.096,6.267l-5.335,5.261c-3.408-3.247-7.354-4.253-11.996-4.253c-6.498,0-10.059,3.713-10.059,8.588
	c0,2.009,0.623,3.788,2.091,5.106c1.392,1.237,3.638,2.168,6.188,2.55l6.27,0.93c5.102,0.777,7.968,2.014,10.285,4.101
	c3.024,2.634,4.491,6.578,4.491,11.3C377.563,493.964,369.284,500,357.758,500"/>
<path d="M422.506,454.895c-1.933-2.088-4.951-3.408-8.199-3.408c-3.249,0-6.267,1.319-8.202,3.408
	c-2.709,2.94-3.252,6.036-3.252,17.094c0,11.065,0.542,14.157,3.252,17.101c1.935,2.093,4.953,3.406,8.202,3.406
	c3.248,0,6.266-1.313,8.199-3.406c2.707-2.944,3.254-6.036,3.254-17.101C425.76,460.93,425.213,457.835,422.506,454.895
	 M428.85,494.119c-3.789,3.789-8.667,5.88-14.543,5.88c-5.879,0-10.678-2.091-14.468-5.88c-5.417-5.415-5.339-11.527-5.339-22.131
	c0-10.6-0.078-16.706,5.339-22.124c3.79-3.792,8.589-5.884,14.468-5.884c5.876,0,10.754,2.092,14.543,5.884
	c5.417,5.418,5.263,11.523,5.263,22.124C434.113,482.593,434.267,488.705,428.85,494.119"/>
<polygon points="520.751,499.536 520.751,462.71 508.064,489.555 501.872,489.555 488.879,462.71 488.879,499.536 480.52,499.536 
	480.52,444.448 488.879,444.448 504.973,478.72 520.751,444.448 529.105,444.448 529.105,499.536 "/>
<polygon points="578.228,499.536 566.237,478.411 554.32,499.536 544.727,499.536 561.746,471.293 545.808,444.448 555.403,444.448 
	566.237,464.178 577.144,444.448 586.736,444.448 570.802,471.293 587.896,499.536 "/>
<path fill="#00A94F" d="M384.417,209.627c0,0-30.463,142.871-275.221,61.595C91.106,265.876,330.807,427.375,384.417,209.627"/>
<path fill="#00A94F" d="M387.667,167.634c0,0-97.422,124.924-376.19,33.552C-74.174,183.119,346.319,409.551,387.667,167.634"/>
<path fill="#EF4135" d="M317.804,129.976c0,0,27.583-129.293,249.056-55.75C583.237,79.076,366.324-67.085,317.804,129.976"/>
<path fill="#EF4135" d="M314.858,167.987c0,0,88.181-113.046,340.44-30.368C732.835,153.965,352.291-50.954,314.858,167.987"/>
<path d="M521.018,147.792c18.715,115.729-59.444,224.81-181.677,222.141c0,0,80.935-18.184,97.568-52.468
	c0,0-50.548,29.435-97.932,30.748c0,0,135.9-12.422,142.957-179.129c0,0,17.048,29.269,13.726,60.283
	C495.66,229.366,517.704,204.552,521.018,147.792"/>
<path d="M181.524,222.181C162.832,106.464,240.976-2.616,363.218,0.048c0,0-139.127,24.097-142.594,200.848
	c0,0-17.062-29.253-13.731-60.275C206.893,140.621,184.854,165.442,181.524,222.181"/>
</svg>
